# xmcd CD database file
#
# Track frame offsets:
#	150
#	18707
#	38635
#	59652
#	78180
#	96080
#	114507
#	131622
#	148115
#	165962
#	182912
#	200350
#
# Disc length: 2955 seconds
#
# Revision: 1
# Processed by: cddbd v1.5.2PL0 Copyright (c) Steve Scherf et al.
# Submitted via: CDex 1.51
#
DISCID=a00b890c
DTITLE=Boyz II Men - The Remedy
DYEAR=1900
DGENRE=R&B
TTITLE0=Muzak
TTITLE1=Gonna Have
TTITLE2=Here I Come
TTITLE3=Perfect Love Song
TTITLE4=Misunderstanding
TTITLE5=Booed Up
TTITLE6=You Dont Love Me
TTITLE7=The Last Time
TTITLE8=Just Like Me
TTITLE9=Crush
TTITLE10=Ego
TTITLE11=Morning Love
EXTD=
EXTT0=
EXTT1=
EXTT2=
EXTT3=
EXTT4=
EXTT5=
EXTT6=
EXTT7=
EXTT8=
EXTT9=
EXTT10=
EXTT11=
PLAYORDER=
